<svg width="38" height="34" viewBox="0 0 38 34" fill="none" xmlns="http://www.w3.org/2000/svg">
<path d="M33.6665 7.81136V4.14469H4.33321V29.8114H33.6665V26.1447H18.9999C18.5136 26.1447 18.0473 25.9515 17.7035 25.6077C17.3597 25.2639 17.1665 24.7976 17.1665 24.3114V9.64469C17.1665 9.15846 17.3597 8.69215 17.7035 8.34833C18.0473 8.00452 18.5136 7.81136 18.9999 7.81136H33.6665ZM2.49988 0.478027H35.4999C35.9861 0.478027 36.4524 0.671181 36.7962 1.015C37.1401 1.35881 37.3332 1.82513 37.3332 2.31136V31.6447C37.3332 32.1309 37.1401 32.5972 36.7962 32.9411C36.4524 33.2849 35.9861 33.478 35.4999 33.478H2.49988C2.01365 33.478 1.54733 33.2849 1.20351 32.9411C0.859696 32.5972 0.666542 32.1309 0.666542 31.6447V2.31136C0.666542 1.82513 0.859696 1.35881 1.20351 1.015C1.54733 0.671181 2.01365 0.478027 2.49988 0.478027V0.478027ZM20.8332 11.478V22.478H33.6665V11.478H20.8332ZM24.4999 15.1447H29.9999V18.8114H24.4999V15.1447Z" fill="#738CFD"/>
</svg>
